<svg width="183" height="64" viewBox="0 0 183 64" fill="none" xmlns="http://www.w3.org/2000/svg">
<rect width="183" height="64" rx="5" fill="white"/>
<path fill-rule="evenodd" clip-rule="evenodd" d="M140.476 45.7938H142.782V30.3777H140.476V45.7938ZM161.254 35.9307L158.608 42.6146H158.529L155.786 35.9307H153.3L157.415 45.2722L155.07 50.4688H157.476L163.818 35.9307H161.254ZM148.17 44.0427C147.415 44.0427 146.36 43.6665 146.36 42.733C146.36 41.5442 147.673 41.0879 148.807 41.0879C149.82 41.0879 150.298 41.3062 150.913 41.6034C150.735 43.0314 149.501 44.0427 148.17 44.0427V44.0427ZM148.448 35.5941C146.778 35.5941 145.048 36.3278 144.333 37.9544L146.38 38.8065C146.818 37.9544 147.633 37.6757 148.488 37.6757C149.681 37.6757 150.894 38.3897 150.913 39.6599V39.8177C150.495 39.5797 149.602 39.2233 148.508 39.2233C146.301 39.2233 144.054 40.4331 144.054 42.6935C144.054 44.7567 145.863 46.0861 147.892 46.0861C149.442 46.0861 150.298 45.3918 150.834 44.5779H150.913V45.7679H153.141V39.8572C153.141 37.1208 151.093 35.5941 148.448 35.5941V35.5941ZM134.191 37.8077H130.911V32.5235H134.191C135.916 32.5235 136.896 33.9478 136.896 35.165C136.896 36.3599 135.916 37.8077 134.191 37.8077V37.8077ZM134.132 30.3777H128.605V45.7938H130.912V39.9534H134.132C136.689 39.9534 139.202 38.1061 139.202 35.1649C139.202 32.2238 136.689 30.3777 134.132 30.3777V30.3777ZM103.99 44.0451C102.397 44.0451 101.063 42.7145 101.063 40.8869C101.063 39.0396 102.397 37.688 103.99 37.688C105.564 37.688 106.799 39.0396 106.799 40.8869C106.799 42.7145 105.564 44.0451 103.99 44.0451V44.0451ZM106.64 36.794H106.559C106.041 36.1787 105.046 35.6225 103.791 35.6225C101.162 35.6225 98.7523 37.9261 98.7523 40.887C98.7523 43.8269 101.162 46.112 103.791 46.112C105.046 46.112 106.041 45.5559 106.559 44.9195H106.64V45.6755C106.64 47.6819 105.564 48.7548 103.831 48.7548C102.417 48.7548 101.54 47.7411 101.183 46.8865L99.1702 47.7213C99.7475 49.1124 101.282 50.8204 103.831 50.8204C106.54 50.8204 108.83 49.2308 108.83 45.3573V35.9394H106.64V36.794ZM110.424 45.7938H112.735V30.3764H110.424V45.7938ZM116.141 40.7081C116.08 38.682 117.713 37.6486 118.889 37.6486C119.805 37.6486 120.581 38.1049 120.841 38.7609L116.141 40.7081ZM123.31 38.9595C122.872 37.788 121.537 35.6225 118.808 35.6225C116.1 35.6225 113.85 37.7473 113.85 40.8673C113.85 43.8072 116.08 46.112 119.068 46.112C121.478 46.112 122.872 44.6421 123.449 43.7875L121.657 42.595C121.06 43.4693 120.243 44.0452 119.068 44.0452C117.892 44.0452 117.055 43.5088 116.519 42.4569L123.55 39.5552L123.31 38.9595ZM67.2963 37.2318V39.4565H72.6346C72.4751 40.7082 72.056 41.6219 71.4193 42.257C70.6417 43.0327 69.4276 43.8873 67.2963 43.8873C64.0103 43.8873 61.4413 41.2446 61.4413 37.9668C61.4413 34.6877 64.0103 32.0462 67.2963 32.0462C69.0691 32.0462 70.3635 32.7417 71.3192 33.6358L72.8929 32.066C71.559 30.7945 69.7862 29.8203 67.2963 29.8203C62.795 29.8203 59.0107 33.4767 59.0107 37.9668C59.0107 42.4568 62.795 46.112 67.2963 46.112C69.7256 46.112 71.559 45.3166 72.9931 43.8269C74.4667 42.3569 74.9242 40.2913 74.9242 38.6216C74.9242 38.1049 74.8846 37.6289 74.8055 37.2318H67.2963ZM80.9931 44.0451C79.3996 44.0451 78.0248 42.7342 78.0248 40.8672C78.0248 38.9791 79.3996 37.688 80.9931 37.688C82.5867 37.688 83.9602 38.9791 83.9602 40.8672C83.9602 42.7342 82.5867 44.0451 80.9931 44.0451V44.0451ZM80.9931 35.6225C78.0854 35.6225 75.7142 37.8275 75.7142 40.8673C75.7142 43.8874 78.0854 46.112 80.9931 46.112C83.9008 46.112 86.2708 43.8874 86.2708 40.8673C86.2708 37.8275 83.9008 35.6225 80.9931 35.6225V35.6225ZM92.5065 44.0451C90.9129 44.0451 89.5394 42.7342 89.5394 40.8672C89.5394 38.9791 90.9129 37.688 92.5065 37.688C94.1001 37.688 95.4736 38.9791 95.4736 40.8672C95.4736 42.7342 94.1001 44.0451 92.5065 44.0451V44.0451ZM92.5065 35.6225C89.5987 35.6225 87.2288 37.8275 87.2288 40.8673C87.2288 43.8874 89.5987 46.112 92.5065 46.112C95.4142 46.112 97.7842 43.8874 97.7842 40.8673C97.7842 37.8275 95.4142 35.6225 92.5065 35.6225V35.6225Z" fill="black" fill-opacity="0.8"/>
<path d="M67.0273 19.6348C67.0273 21.0488 66.6406 22.1309 65.8672 22.8809C65.0977 23.627 63.9922 24 62.5508 24H60.166V15.4336H62.8027C64.1348 15.4336 65.1719 15.8008 65.9141 16.5352C66.6562 17.2656 67.0273 18.2988 67.0273 19.6348ZM65.8906 19.6699C65.8906 18.5801 65.6211 17.7559 65.082 17.1973C64.5469 16.6348 63.7363 16.3535 62.6504 16.3535H61.2441V23.0742H62.4102C64.7305 23.0742 65.8906 21.9395 65.8906 19.6699ZM74.975 20.7715C74.975 21.8223 74.7094 22.6426 74.1781 23.2324C73.6469 23.8223 72.9125 24.1172 71.975 24.1172C71.393 24.1172 70.8773 23.9824 70.4281 23.7129C69.9789 23.4395 69.6332 23.0488 69.391 22.541C69.1488 22.0332 69.0277 21.4434 69.0277 20.7715C69.0277 19.7246 69.2895 18.9102 69.8129 18.3281C70.3363 17.7422 71.0707 17.4492 72.016 17.4492C72.9223 17.4492 73.641 17.748 74.1723 18.3457C74.7074 18.9395 74.975 19.748 74.975 20.7715ZM70.1176 20.7715C70.1176 21.5801 70.2758 22.1953 70.5922 22.6172C70.9125 23.0352 71.3832 23.2441 72.0043 23.2441C72.6176 23.2441 73.0844 23.0352 73.4047 22.6172C73.725 22.1953 73.8852 21.5801 73.8852 20.7715C73.8852 19.9629 73.723 19.3555 73.3988 18.9492C73.0785 18.5391 72.6078 18.334 71.9867 18.334C70.7406 18.334 70.1176 19.1465 70.1176 20.7715ZM82.3895 24L81.2879 20.3789C81.1863 20.0781 81.0379 19.5098 80.8426 18.6738H80.7957C80.6316 19.4355 80.4871 20.0078 80.3621 20.3906L79.2078 24H78.0125L76.2488 17.5664H77.3387C77.7449 19.1484 78.0535 20.3516 78.2645 21.1758C78.4793 22 78.6063 22.582 78.6453 22.9219H78.6922L78.7742 22.5586C78.8953 22 79.0125 21.5449 79.1258 21.1934L80.2684 17.5664H81.4168L82.5242 21.1934C82.5633 21.3301 82.6043 21.4766 82.6473 21.6328C82.6941 21.7852 82.7371 21.9375 82.7762 22.0898C82.8152 22.2383 82.8504 22.3848 82.8816 22.5293C82.9129 22.6699 82.9363 22.7969 82.952 22.9102H83.0047C83.0398 22.6133 83.1824 21.9766 83.4324 21L84.3348 17.5664H85.4129L83.6258 24H82.3895ZM91.55 24V19.8867C91.55 19.3633 91.4328 18.9746 91.1984 18.7207C90.968 18.4629 90.6047 18.334 90.1086 18.334C89.4484 18.334 88.968 18.5176 88.6672 18.8848C88.3703 19.248 88.2219 19.8418 88.2219 20.666V24H87.1672V17.5664H88.0168L88.175 18.4453H88.2336C88.4328 18.1289 88.7121 17.8848 89.0715 17.7129C89.4309 17.5371 89.8273 17.4492 90.2609 17.4492C91.05 17.4492 91.6359 17.6406 92.0187 18.0234C92.4016 18.4062 92.593 19.002 92.593 19.8105V24H91.55ZM96.2398 24H95.1852V14.8828H96.2398V24ZM104.469 20.7715C104.469 21.8223 104.203 22.6426 103.672 23.2324C103.141 23.8223 102.406 24.1172 101.469 24.1172C100.887 24.1172 100.371 23.9824 99.9219 23.7129C99.4727 23.4395 99.127 23.0488 98.8848 22.541C98.6426 22.0332 98.5215 21.4434 98.5215 20.7715C98.5215 19.7246 98.7832 18.9102 99.3066 18.3281C99.8301 17.7422 100.564 17.4492 101.51 17.4492C102.416 17.4492 103.135 17.748 103.666 18.3457C104.201 18.9395 104.469 19.748 104.469 20.7715ZM99.6113 20.7715C99.6113 21.5801 99.7695 22.1953 100.086 22.6172C100.406 23.0352 100.877 23.2441 101.498 23.2441C102.111 23.2441 102.578 23.0352 102.898 22.6172C103.219 22.1953 103.379 21.5801 103.379 20.7715C103.379 19.9629 103.217 19.3555 102.893 18.9492C102.572 18.5391 102.102 18.334 101.48 18.334C100.234 18.334 99.6113 19.1465 99.6113 20.7715ZM110.717 24L110.512 23.0859H110.465C110.145 23.4883 109.825 23.7617 109.504 23.9062C109.188 24.0469 108.787 24.1172 108.303 24.1172C107.67 24.1172 107.174 23.9512 106.815 23.6191C106.455 23.2871 106.276 22.8184 106.276 22.2129C106.276 20.9082 107.305 20.2246 109.364 20.1621L110.454 20.1211V19.7402C110.454 19.252 110.348 18.8926 110.137 18.6621C109.926 18.4277 109.588 18.3105 109.123 18.3105C108.784 18.3105 108.461 18.3613 108.157 18.4629C107.856 18.5645 107.573 18.6777 107.307 18.8027L106.985 18.0117C107.309 17.8398 107.662 17.7051 108.045 17.6074C108.428 17.5098 108.807 17.4609 109.182 17.4609C109.959 17.4609 110.537 17.6328 110.916 17.9766C111.295 18.3203 111.485 18.8672 111.485 19.6172V24H110.717ZM108.543 23.2676C109.133 23.2676 109.596 23.1094 109.932 22.793C110.272 22.4727 110.442 22.0195 110.442 21.4336V20.8535L109.493 20.8945C108.754 20.9219 108.215 21.0391 107.875 21.2461C107.539 21.4531 107.371 21.7793 107.371 22.2246C107.371 22.5605 107.473 22.8184 107.676 22.998C107.883 23.1777 108.172 23.2676 108.543 23.2676ZM116.362 24.1172C115.526 24.1172 114.878 23.8281 114.417 23.25C113.956 22.6719 113.725 21.8535 113.725 20.7949C113.725 19.7441 113.956 18.9238 114.417 18.334C114.882 17.7441 115.534 17.4492 116.374 17.4492C117.237 17.4492 117.901 17.7656 118.366 18.3984H118.442C118.43 18.3203 118.415 18.1641 118.395 17.9297C118.376 17.6914 118.366 17.5312 118.366 17.4492V14.8828H119.421V24H118.571L118.413 23.1387H118.366C117.917 23.791 117.249 24.1172 116.362 24.1172ZM116.532 23.2441C117.173 23.2441 117.639 23.0703 117.932 22.7227C118.229 22.3711 118.378 21.7969 118.378 21V20.8066C118.378 19.9121 118.227 19.2754 117.927 18.8965C117.63 18.5137 117.161 18.3223 116.52 18.3223C115.977 18.3223 115.557 18.5391 115.261 18.9727C114.964 19.4023 114.815 20.0176 114.815 20.8184C114.815 21.6152 114.962 22.2188 115.255 22.6289C115.552 23.0391 115.977 23.2441 116.532 23.2441ZM131.373 20.7715C131.373 21.8223 131.107 22.6426 130.576 23.2324C130.045 23.8223 129.31 24.1172 128.373 24.1172C127.791 24.1172 127.275 23.9824 126.826 23.7129C126.377 23.4395 126.031 23.0488 125.789 22.541C125.546 22.0332 125.425 21.4434 125.425 20.7715C125.425 19.7246 125.687 18.9102 126.211 18.3281C126.734 17.7422 127.468 17.4492 128.414 17.4492C129.32 17.4492 130.039 17.748 130.57 18.3457C131.105 18.9395 131.373 19.748 131.373 20.7715ZM126.515 20.7715C126.515 21.5801 126.673 22.1953 126.99 22.6172C127.31 23.0352 127.781 23.2441 128.402 23.2441C129.015 23.2441 129.482 23.0352 129.802 22.6172C130.123 22.1953 130.283 21.5801 130.283 20.7715C130.283 19.9629 130.121 19.3555 129.796 18.9492C129.476 18.5391 129.005 18.334 128.384 18.334C127.138 18.334 126.515 19.1465 126.515 20.7715ZM138.031 24V19.8867C138.031 19.3633 137.914 18.9746 137.68 18.7207C137.449 18.4629 137.086 18.334 136.59 18.334C135.93 18.334 135.449 18.5176 135.148 18.8848C134.852 19.248 134.703 19.8418 134.703 20.666V24H133.648V17.5664H134.498L134.656 18.4453H134.715C134.914 18.1289 135.193 17.8848 135.553 17.7129C135.912 17.5371 136.309 17.4492 136.742 17.4492C137.531 17.4492 138.117 17.6406 138.5 18.0234C138.883 18.4062 139.074 19.002 139.074 19.8105V24H138.031ZM147.534 23.2559C147.671 23.2559 147.831 23.2422 148.014 23.2148C148.198 23.1875 148.337 23.1562 148.43 23.1211V23.9297C148.333 23.9727 148.18 24.0137 147.973 24.0527C147.77 24.0957 147.563 24.1172 147.352 24.1172C146.095 24.1172 145.466 23.4551 145.466 22.1309V18.3867H144.557V17.8828L145.477 17.4609L145.899 16.0898H146.526V17.5664H148.384V18.3867H146.526V22.1016C146.526 22.4727 146.614 22.7578 146.79 22.957C146.97 23.1562 147.218 23.2559 147.534 23.2559ZM154.702 24V19.8867C154.702 19.3633 154.585 18.9746 154.351 18.7207C154.12 18.4629 153.757 18.334 153.261 18.334C152.609 18.334 152.13 18.5156 151.825 18.8789C151.525 19.2422 151.374 19.8418 151.374 20.6777V24H150.32V14.8828H151.374V17.5547C151.374 17.9062 151.355 18.207 151.316 18.457H151.386C151.577 18.1445 151.849 17.9004 152.2 17.7246C152.552 17.5488 152.948 17.4609 153.39 17.4609C154.171 17.4609 154.759 17.6484 155.154 18.0234C155.548 18.3945 155.745 18.9902 155.745 19.8105V24H154.702ZM161.074 24.1172C160.109 24.1172 159.351 23.8262 158.8 23.2441C158.254 22.6582 157.98 21.8535 157.98 20.8301C157.98 19.7988 158.236 18.9785 158.748 18.3691C159.259 17.7559 159.951 17.4492 160.822 17.4492C161.63 17.4492 162.275 17.7109 162.755 18.2344C163.236 18.7539 163.476 19.459 163.476 20.3496V20.9883H159.07C159.089 21.7188 159.275 22.2734 159.627 22.6523C159.978 23.0312 160.476 23.2207 161.121 23.2207C161.464 23.2207 161.791 23.1914 162.099 23.1328C162.408 23.0703 162.769 22.9512 163.183 22.7754V23.7012C162.828 23.8535 162.494 23.9609 162.181 24.0234C161.869 24.0859 161.5 24.1172 161.074 24.1172ZM160.81 18.3105C160.306 18.3105 159.908 18.4727 159.615 18.7969C159.322 19.1211 159.148 19.5723 159.093 20.1504H162.369C162.361 19.5488 162.222 19.0918 161.953 18.7793C161.683 18.4668 161.302 18.3105 160.81 18.3105Z" fill="black" fill-opacity="0.8"/>
<path fill-rule="evenodd" clip-rule="evenodd" d="M19.6136 15.5262C19.2279 15.932 19 16.5639 19 17.3834V17.3834V46.6171C19 47.4367 19.2279 48.0672 19.6136 48.4744V48.4744L19.7103 48.5696L36.1296 32.1939V32.0009V31.8066L19.7103 15.4297L19.6136 15.5262Z" fill="url(#paint0_linear)"/>
<path fill-rule="evenodd" clip-rule="evenodd" d="M36.1299 31.8066V32.0009V32.1939L41.6017 37.6546L41.7276 37.5846L48.2105 33.9084C50.0631 32.8601 50.0631 31.1417 48.2105 30.0921V30.0921L41.7276 26.4172L41.603 26.3472L36.1299 31.8066Z" fill="url(#paint1_linear)"/>
<path fill-rule="evenodd" clip-rule="evenodd" d="M19.6133 48.4744C20.2229 49.1195 21.2314 49.1988 22.3671 48.5564L41.727 37.5847L36.1293 32.001L19.6133 48.4744Z" fill="url(#paint2_linear)"/>
<path fill-rule="evenodd" clip-rule="evenodd" d="M19.6133 15.5261L36.1293 32.0009L41.727 26.4159L22.3671 15.4442C21.8343 15.1428 21.3294 15 20.8815 15V15C20.3739 15 19.9366 15.1837 19.6133 15.5261" fill="url(#paint3_linear)"/>
<defs>
<linearGradient id="paint0_linear" x1="28.9554" y1="-4.57727" x2="2.61099" y2="2.44917" gradientUnits="userSpaceOnUse">
<stop stop-color="#00A1FF"/>
<stop offset="0.2601" stop-color="#00BEFF"/>
<stop offset="0.5122" stop-color="#00D2FF"/>
<stop offset="0.7604" stop-color="#00DFFF"/>
<stop offset="1" stop-color="#00E3FF"/>
</linearGradient>
<linearGradient id="paint1_linear" x1="50.6773" y1="18.4701" x2="18.5656" y2="18.4701" gradientUnits="userSpaceOnUse">
<stop stop-color="#FFE000"/>
<stop offset="0.4087" stop-color="#FFBD00"/>
<stop offset="0.7754" stop-color="#FFA500"/>
<stop offset="1" stop-color="#FF9C00"/>
</linearGradient>
<linearGradient id="paint2_linear" x1="19.0589" y1="23.3465" x2="-2.07663" y2="59.0356" gradientUnits="userSpaceOnUse">
<stop stop-color="#FF3A44"/>
<stop offset="1" stop-color="#C31162"/>
</linearGradient>
<linearGradient id="paint3_linear" x1="6.69216" y1="11.0839" x2="16.1549" y2="26.8875" gradientUnits="userSpaceOnUse">
<stop stop-color="#32A071"/>
<stop offset="0.0685" stop-color="#2DA771"/>
<stop offset="0.4762" stop-color="#15CF74"/>
<stop offset="0.8009" stop-color="#06E775"/>
<stop offset="1" stop-color="#00F076"/>
</linearGradient>
</defs>
</svg>
