<svg width="176" height="64" viewBox="0 0 176 64" fill="none" xmlns="http://www.w3.org/2000/svg">
<rect width="176" height="64" rx="5" fill="white"/>
<path fill-rule="evenodd" clip-rule="evenodd" d="M43.2585 32.3763C43.2212 28.2484 46.6468 26.2402 46.8034 26.1467C44.8634 23.3251 41.8564 22.9396 40.7997 22.9089C38.2742 22.6437 35.8245 24.4163 34.538 24.4163C33.2258 24.4163 31.2447 22.9345 29.1095 22.978C26.3618 23.0203 23.7914 24.6072 22.3816 27.0714C19.4722 32.0959 21.6421 39.4795 24.4295 43.5409C25.8239 45.5299 27.4532 47.7508 29.5858 47.6726C31.6722 47.5868 32.4516 46.3458 34.9694 46.3458C37.464 46.3458 38.1959 47.6726 40.3709 47.6227C42.6101 47.5868 44.0198 45.6247 45.3654 43.6177C46.9767 41.3379 47.6238 39.0927 47.6495 38.9775C47.5969 38.9595 43.3008 37.324 43.2585 32.3763V32.3763Z" fill="black" fill-opacity="0.8"/>
<path fill-rule="evenodd" clip-rule="evenodd" d="M39.1498 20.2371C40.272 18.8372 41.0398 16.9327 40.8267 15C39.2025 15.0717 37.1713 16.1207 36.0016 17.4898C34.9668 18.6963 34.0423 20.6738 34.2812 22.5335C36.1056 22.6693 37.9789 21.6152 39.1498 20.2371V20.2371Z" fill="black" fill-opacity="0.8"/>
<path fill-rule="evenodd" clip-rule="evenodd" d="M155.176 39.9499C155.176 40.4106 155.145 40.7989 155.081 41.116H147.349C147.379 42.2592 147.753 43.1335 148.471 43.7365C149.123 44.2755 149.965 44.5456 151 44.5456C152.145 44.5456 153.189 44.3635 154.129 43.9981L154.532 45.7829C153.435 46.2604 152.139 46.498 150.643 46.498C148.845 46.498 147.433 45.9698 146.405 44.9146C145.38 43.8595 144.866 42.4425 144.866 40.665C144.866 38.9201 145.344 37.4669 146.3 36.308C147.301 35.0708 148.654 34.4521 150.356 34.4521C152.028 34.4521 153.293 35.0708 154.153 36.308C154.833 37.2909 155.176 38.5064 155.176 39.9499V39.9499ZM152.718 39.2831C152.735 38.521 152.567 37.8625 152.217 37.3066C151.771 36.5915 151.086 36.2346 150.164 36.2346C149.321 36.2346 148.636 36.5831 148.112 37.2825C147.683 37.8384 147.428 38.5053 147.349 39.2819H152.718V39.2831Z" fill="black" fill-opacity="0.8"/>
<path fill-rule="evenodd" clip-rule="evenodd" d="M143.649 36.9728C143.394 36.9257 143.122 36.9016 142.836 36.9016C141.93 36.9016 141.229 37.2429 140.735 37.9266C140.306 38.5296 140.091 39.2917 140.091 40.2118V46.2836H137.515L137.539 38.3559C137.539 37.0222 137.506 35.8079 137.442 34.7129H139.687L139.782 36.9269H139.853C140.125 36.166 140.554 35.5534 141.142 35.094C141.716 34.6803 142.336 34.4741 143.004 34.4741C143.243 34.4741 143.458 34.491 143.649 34.5212V36.9728V36.9728Z" fill="black" fill-opacity="0.8"/>
<path fill-rule="evenodd" clip-rule="evenodd" d="M135.272 40.4022C135.272 42.1809 134.761 43.6412 133.743 44.7832C132.676 45.959 131.259 46.5451 129.493 46.5451C127.791 46.5451 126.436 45.9819 125.425 44.8556C124.414 43.7293 123.909 42.3075 123.909 40.5939C123.909 38.8007 124.429 37.3319 125.472 36.1899C126.513 35.0467 127.918 34.4751 129.684 34.4751C131.386 34.4751 132.756 35.0383 133.789 36.1658C134.778 37.2595 135.272 38.6717 135.272 40.4022V40.4022ZM132.598 40.4853C132.598 39.4181 132.369 38.5028 131.906 37.7394C131.366 36.8157 130.593 36.3551 129.592 36.3551C128.556 36.3551 127.769 36.8169 127.229 37.7394C126.766 38.504 126.537 39.4337 126.537 40.5335C126.537 41.6008 126.766 42.5161 127.229 43.2782C127.786 44.2019 128.565 44.6626 129.569 44.6626C130.553 44.6626 131.326 44.1923 131.883 43.2541C132.358 42.4763 132.598 41.5513 132.598 40.4853V40.4853Z" fill="black" fill-opacity="0.8"/>
<path fill-rule="evenodd" clip-rule="evenodd" d="M122.453 36.6409H119.613V42.2593C119.613 43.6883 120.113 44.4022 121.116 44.4022C121.577 44.4022 121.959 44.3624 122.261 44.2828L122.333 46.2351C121.825 46.4245 121.156 46.5197 120.328 46.5197C119.31 46.5197 118.515 46.2098 117.941 45.5912C117.369 44.9714 117.081 43.9319 117.081 42.4715V36.6385H115.389V34.709H117.081V32.5903L119.613 31.8281V34.709H122.453V36.6409V36.6409Z" fill="black" fill-opacity="0.8"/>
<path fill-rule="evenodd" clip-rule="evenodd" d="M113.932 41.783C113.932 43.1481 113.457 44.2587 112.503 45.1161C111.455 46.0531 109.996 46.521 108.121 46.521C106.39 46.521 105.002 46.1882 103.951 45.5213L104.548 43.3784C105.68 44.0609 106.921 44.4034 108.274 44.4034C109.245 44.4034 110 44.1839 110.543 43.7474C111.084 43.3108 111.353 42.7248 111.353 41.994C111.353 41.3428 111.131 40.7941 110.685 40.3491C110.241 39.9041 109.5 39.4905 108.465 39.1082C105.648 38.0603 104.241 36.5252 104.241 34.5065C104.241 33.1872 104.735 32.1055 105.722 31.2638C106.706 30.4209 108.019 30 109.661 30C111.125 30 112.341 30.2544 113.312 30.7621L112.667 32.858C111.761 32.366 110.735 32.12 109.588 32.12C108.682 32.12 107.973 32.3431 107.465 32.7869C107.036 33.1836 106.821 33.6672 106.821 34.24C106.821 34.8743 107.066 35.3989 107.56 35.8113C107.989 36.1924 108.769 36.6048 109.9 37.0498C111.284 37.6057 112.301 38.2557 112.955 39.0009C113.607 39.7438 113.932 40.6735 113.932 41.783V41.783Z" fill="black" fill-opacity="0.8"/>
<path fill-rule="evenodd" clip-rule="evenodd" d="M99.0139 40.3554C99.0139 42.3234 98.4808 43.879 97.4133 45.021C96.4595 46.0376 95.2736 46.5453 93.858 46.5453C92.3299 46.5453 91.2323 45.9978 90.565 44.9028H90.5166V50.9987H87.9393V38.5212C87.9393 37.2839 87.9066 36.0141 87.8438 34.7117H90.1104L90.2543 36.5459H90.3026C91.1609 35.1639 92.4653 34.4741 94.217 34.4741C95.5843 34.4741 96.7267 35.0132 97.643 36.0925C98.5557 37.173 99.0139 38.5935 99.0139 40.3554V40.3554ZM96.3883 40.4494C96.3883 39.3231 96.1332 38.3946 95.623 37.6638C95.0657 36.9017 94.3199 36.5206 93.3806 36.5206C92.7435 36.5206 92.1668 36.7328 91.6494 37.1513C91.132 37.5733 90.7947 38.1244 90.6364 38.807C90.5578 39.1254 90.5167 39.3858 90.5167 39.5908V41.5203C90.5167 42.362 90.7754 43.0723 91.2904 43.6523C91.8078 44.2312 92.4799 44.5218 93.3092 44.5218C94.28 44.5218 95.0355 44.148 95.5759 43.4027C96.1175 42.6563 96.3883 41.6722 96.3883 40.4494V40.4494Z" fill="black" fill-opacity="0.8"/>
<path fill-rule="evenodd" clip-rule="evenodd" d="M85.6713 40.3554C85.6713 42.3234 85.1382 43.879 84.072 45.021C83.117 46.0376 81.931 46.5453 80.5154 46.5453C78.9874 46.5453 77.8897 45.9978 77.2212 44.9028H77.1729V50.9987H74.5955V38.5212C74.5955 37.2839 74.5629 36.0141 74.5 34.7117H76.7667L76.9105 36.5459H76.9589C77.8184 35.1639 79.1228 34.4741 80.8733 34.4741C82.2417 34.4741 83.3841 35.0132 84.298 36.0925C85.2144 37.173 85.6713 38.5935 85.6713 40.3554V40.3554ZM83.0457 40.4494C83.0457 39.3231 82.7919 38.3946 82.2817 37.6638C81.7244 36.9017 80.9761 36.5206 80.038 36.5206C79.4021 36.5206 78.8243 36.7328 78.3081 37.1513C77.7907 37.5733 77.4522 38.1244 77.2938 38.807C77.214 39.1254 77.1741 39.3858 77.1741 39.5908V41.5203C77.1741 42.362 77.4328 43.0723 77.9503 43.6523C78.4677 44.2324 79.1398 44.5218 79.9667 44.5218C80.9374 44.5218 81.693 44.148 82.2333 43.4027C82.7749 42.6563 83.0457 41.6722 83.0457 40.4494V40.4494Z" fill="black" fill-opacity="0.8"/>
<path fill-rule="evenodd" clip-rule="evenodd" d="M72.3534 46.2836H69.608L68.1041 41.5697H62.8769L61.4443 46.2836H58.7715L63.9504 30.2354H67.1491L72.3534 46.2836V46.2836ZM67.6507 39.5921L66.2907 35.4015C66.1468 34.9734 65.8773 33.9653 65.4795 32.3783H65.4312C65.2728 33.0609 65.0177 34.069 64.6672 35.4015L63.3313 39.5921H67.6507V39.5921Z" fill="black" fill-opacity="0.8"/>
<path d="M66.5391 24L65.5078 21.3457H62.1094L61.0898 24H60L63.3457 15.3984H64.3184L67.6582 24H66.5391ZM65.1855 20.3906L64.2246 17.7949L63.8145 16.5117C63.6973 16.9805 63.5742 17.4082 63.4453 17.7949L62.4727 20.3906H65.1855ZM70.7133 24L68.2758 17.5664H69.4066L70.7719 21.3574C71.0414 22.1191 71.2133 22.6875 71.2875 23.0625H71.3344C71.3461 23.0117 71.3598 22.9551 71.3754 22.8926C71.3949 22.8262 71.4164 22.7559 71.4398 22.6816C71.4633 22.6035 71.6078 22.1621 71.8734 21.3574L73.2445 17.5664H74.3695L71.9262 24H70.7133ZM79.9617 24L79.7566 23.0859H79.7098C79.3895 23.4883 79.0691 23.7617 78.7488 23.9062C78.4324 24.0469 78.032 24.1172 77.5477 24.1172C76.9148 24.1172 76.4187 23.9512 76.0594 23.6191C75.7 23.2871 75.5203 22.8184 75.5203 22.2129C75.5203 20.9082 76.5496 20.2246 78.6082 20.1621L79.698 20.1211V19.7402C79.698 19.252 79.5926 18.8926 79.3816 18.6621C79.1707 18.4277 78.8328 18.3105 78.368 18.3105C78.0281 18.3105 77.7059 18.3613 77.4012 18.4629C77.1004 18.5645 76.8172 18.6777 76.5516 18.8027L76.2293 18.0117C76.5535 17.8398 76.907 17.7051 77.2898 17.6074C77.6727 17.5098 78.0516 17.4609 78.4266 17.4609C79.2039 17.4609 79.782 17.6328 80.1609 17.9766C80.5398 18.3203 80.7293 18.8672 80.7293 19.6172V24H79.9617ZM77.7879 23.2676C78.3777 23.2676 78.8406 23.1094 79.1766 22.793C79.5164 22.4727 79.6863 22.0195 79.6863 21.4336V20.8535L78.7371 20.8945C77.9988 20.9219 77.4598 21.0391 77.1199 21.2461C76.784 21.4531 76.616 21.7793 76.616 22.2246C76.616 22.5605 76.7176 22.8184 76.9207 22.998C77.1277 23.1777 77.4168 23.2676 77.7879 23.2676ZM84.382 24H83.3273V17.5664H84.382V24ZM83.2453 15.8262C83.2453 15.5918 83.3039 15.4219 83.4211 15.3164C83.5422 15.2109 83.6906 15.1582 83.8664 15.1582C84.0305 15.1582 84.173 15.2109 84.2941 15.3164C84.4191 15.4219 84.4816 15.5918 84.4816 15.8262C84.4816 16.0566 84.4191 16.2266 84.2941 16.3359C84.173 16.4453 84.0305 16.5 83.8664 16.5C83.6906 16.5 83.5422 16.4453 83.4211 16.3359C83.3039 16.2266 83.2453 16.0566 83.2453 15.8262ZM88.0758 24H87.0211V14.8828H88.0758V24ZM94.6875 24L94.4824 23.0859H94.4355C94.1152 23.4883 93.7949 23.7617 93.4746 23.9062C93.1582 24.0469 92.7578 24.1172 92.2734 24.1172C91.6406 24.1172 91.1445 23.9512 90.7852 23.6191C90.4258 23.2871 90.2461 22.8184 90.2461 22.2129C90.2461 20.9082 91.2754 20.2246 93.334 20.1621L94.4238 20.1211V19.7402C94.4238 19.252 94.3184 18.8926 94.1074 18.6621C93.8965 18.4277 93.5586 18.3105 93.0938 18.3105C92.7539 18.3105 92.4316 18.3613 92.127 18.4629C91.8262 18.5645 91.543 18.6777 91.2773 18.8027L90.9551 18.0117C91.2793 17.8398 91.6328 17.7051 92.0156 17.6074C92.3984 17.5098 92.7773 17.4609 93.1523 17.4609C93.9297 17.4609 94.5078 17.6328 94.8867 17.9766C95.2656 18.3203 95.4551 18.8672 95.4551 19.6172V24H94.6875ZM92.5137 23.2676C93.1035 23.2676 93.5664 23.1094 93.9023 22.793C94.2422 22.4727 94.4121 22.0195 94.4121 21.4336V20.8535L93.4629 20.8945C92.7246 20.9219 92.1855 21.0391 91.8457 21.2461C91.5098 21.4531 91.3418 21.7793 91.3418 22.2246C91.3418 22.5605 91.4434 22.8184 91.6465 22.998C91.8535 23.1777 92.1426 23.2676 92.5137 23.2676ZM101.1 17.4609C101.948 17.4609 102.602 17.7539 103.063 18.3398C103.524 18.9219 103.754 19.7363 103.754 20.7832C103.754 21.8457 103.52 22.668 103.051 23.25C102.582 23.8281 101.932 24.1172 101.1 24.1172C100.666 24.1172 100.28 24.0391 99.9398 23.8828C99.6 23.7266 99.3227 23.4941 99.1078 23.1855H99.0258C98.9047 23.6543 98.8324 23.9258 98.809 24H98.0531V14.8828H99.1078V17.0977C99.1078 17.5391 99.0883 17.9805 99.0492 18.4219H99.1078C99.5414 17.7812 100.205 17.4609 101.1 17.4609ZM100.924 18.334C100.276 18.334 99.8109 18.5176 99.5297 18.8848C99.2484 19.252 99.1078 19.873 99.1078 20.748V20.7949C99.1078 21.6738 99.2504 22.3027 99.5355 22.6816C99.8246 23.0566 100.295 23.2441 100.948 23.2441C101.526 23.2441 101.955 23.0332 102.237 22.6113C102.522 22.1855 102.664 21.5723 102.664 20.7715C102.664 19.959 102.522 19.3496 102.237 18.9434C101.952 18.5371 101.514 18.334 100.924 18.334ZM107.091 24H106.036V14.8828H107.091V24ZM112.466 24.1172C111.501 24.1172 110.743 23.8262 110.193 23.2441C109.646 22.6582 109.372 21.8535 109.372 20.8301C109.372 19.7988 109.628 18.9785 110.14 18.3691C110.652 17.7559 111.343 17.4492 112.214 17.4492C113.023 17.4492 113.667 17.7109 114.148 18.2344C114.628 18.7539 114.868 19.459 114.868 20.3496V20.9883H110.462C110.482 21.7188 110.667 22.2734 111.019 22.6523C111.37 23.0312 111.868 23.2207 112.513 23.2207C112.857 23.2207 113.183 23.1914 113.491 23.1328C113.8 23.0703 114.161 22.9512 114.575 22.7754V23.7012C114.22 23.8535 113.886 23.9609 113.573 24.0234C113.261 24.0859 112.892 24.1172 112.466 24.1172ZM112.202 18.3105C111.698 18.3105 111.3 18.4727 111.007 18.7969C110.714 19.1211 110.54 19.5723 110.486 20.1504H113.761C113.753 19.5488 113.614 19.0918 113.345 18.7793C113.075 18.4668 112.695 18.3105 112.202 18.3105ZM126.41 20.7715C126.41 21.8223 126.145 22.6426 125.613 23.2324C125.082 23.8223 124.348 24.1172 123.41 24.1172C122.828 24.1172 122.312 23.9824 121.863 23.7129C121.414 23.4395 121.068 23.0488 120.826 22.541C120.584 22.0332 120.463 21.4434 120.463 20.7715C120.463 19.7246 120.725 18.9102 121.248 18.3281C121.771 17.7422 122.506 17.4492 123.451 17.4492C124.357 17.4492 125.076 17.748 125.607 18.3457C126.143 18.9395 126.41 19.748 126.41 20.7715ZM121.553 20.7715C121.553 21.5801 121.711 22.1953 122.027 22.6172C122.348 23.0352 122.818 23.2441 123.439 23.2441C124.053 23.2441 124.52 23.0352 124.84 22.6172C125.16 22.1953 125.32 21.5801 125.32 20.7715C125.32 19.9629 125.158 19.3555 124.834 18.9492C124.514 18.5391 124.043 18.334 123.422 18.334C122.176 18.334 121.553 19.1465 121.553 20.7715ZM133.069 24V19.8867C133.069 19.3633 132.952 18.9746 132.717 18.7207C132.487 18.4629 132.123 18.334 131.627 18.334C130.967 18.334 130.487 18.5176 130.186 18.8848C129.889 19.248 129.741 19.8418 129.741 20.666V24H128.686V17.5664H129.536L129.694 18.4453H129.752C129.952 18.1289 130.231 17.8848 130.59 17.7129C130.95 17.5371 131.346 17.4492 131.78 17.4492C132.569 17.4492 133.155 17.6406 133.537 18.0234C133.92 18.4062 134.112 19.002 134.112 19.8105V24H133.069ZM142.571 23.2559C142.708 23.2559 142.868 23.2422 143.052 23.2148C143.236 23.1875 143.374 23.1562 143.468 23.1211V23.9297C143.37 23.9727 143.218 24.0137 143.011 24.0527C142.808 24.0957 142.601 24.1172 142.39 24.1172C141.132 24.1172 140.503 23.4551 140.503 22.1309V18.3867H139.595V17.8828L140.515 17.4609L140.937 16.0898H141.564V17.5664H143.421V18.3867H141.564V22.1016C141.564 22.4727 141.652 22.7578 141.827 22.957C142.007 23.1562 142.255 23.2559 142.571 23.2559ZM149.74 24V19.8867C149.74 19.3633 149.623 18.9746 149.388 18.7207C149.158 18.4629 148.795 18.334 148.298 18.334C147.646 18.334 147.168 18.5156 146.863 18.8789C146.562 19.2422 146.412 19.8418 146.412 20.6777V24H145.357V14.8828H146.412V17.5547C146.412 17.9062 146.392 18.207 146.353 18.457H146.423C146.615 18.1445 146.886 17.9004 147.238 17.7246C147.589 17.5488 147.986 17.4609 148.427 17.4609C149.209 17.4609 149.796 17.6484 150.191 18.0234C150.586 18.3945 150.783 18.9902 150.783 19.8105V24H149.74ZM156.111 24.1172C155.146 24.1172 154.389 23.8262 153.838 23.2441C153.291 22.6582 153.018 21.8535 153.018 20.8301C153.018 19.7988 153.273 18.9785 153.785 18.3691C154.297 17.7559 154.988 17.4492 155.859 17.4492C156.668 17.4492 157.312 17.7109 157.793 18.2344C158.273 18.7539 158.514 19.459 158.514 20.3496V20.9883H154.107C154.127 21.7188 154.312 22.2734 154.664 22.6523C155.016 23.0312 155.514 23.2207 156.158 23.2207C156.502 23.2207 156.828 23.1914 157.137 23.1328C157.445 23.0703 157.807 22.9512 158.221 22.7754V23.7012C157.865 23.8535 157.531 23.9609 157.219 24.0234C156.906 24.0859 156.537 24.1172 156.111 24.1172ZM155.848 18.3105C155.344 18.3105 154.945 18.4727 154.652 18.7969C154.359 19.1211 154.186 19.5723 154.131 20.1504H157.406C157.398 19.5488 157.26 19.0918 156.99 18.7793C156.721 18.4668 156.34 18.3105 155.848 18.3105Z" fill="black" fill-opacity="0.8"/>
</svg>
